HIERARCHY
ROOT Hips
{
  OFFSET 3.13124 94.3669 -3.18751
  CHANNELS  6 Xposition Yposition Zposition Zrotation Xrotation Yrotation
  JOINT LeftUpLeg
  {
    OFFSET 8.64259 1.95398 -2.38835
    CHANNELS 3 Zrotation Xrotation Yrotation
    JOINT LeftLeg
    {
      OFFSET 43.7702 0 0
      CHANNELS 3 Zrotation Xrotation Yrotation
      JOINT LeftFoot
      {
        OFFSET 40.6238 0 0
        CHANNELS 3 Zrotation Xrotation Yrotation
        JOINT LeftToeBase
        {
          OFFSET 12.7242 0 0
          CHANNELS 3 Zrotation Xrotation Yrotation
          End Site
          {
            OFFSET 0 0 0
          }
        }
      }
    }
  }
  JOINT RightUpLeg
  {
    OFFSET -8.2249 1.95398 -2.59336
    CHANNELS 3 Zrotation Xrotation Yrotation
    JOINT RightLeg
    {
      OFFSET 43.5653 0 0
      CHANNELS 3 Zrotation Xrotation Yrotation
      JOINT RightFoot
      {
        OFFSET 40.6238 0 0
        CHANNELS 3 Zrotation Xrotation Yrotation
        JOINT RightToeBase
        {
          OFFSET 12.7242 0 0
          CHANNELS 3 Zrotation Xrotation Yrotation
          End Site
          {
            OFFSET 0 0 0
          }
        }
      }
    }
  }
  JOINT Spine
  {
    OFFSET 0.165834 0.87714 6.61349
    CHANNELS 3 Zrotation Xrotation Yrotation
    JOINT Spine1
    {
      OFFSET 7.38962 1.71661e-005 0
      CHANNELS 3 Zrotation Xrotation Yrotation
      JOINT Spine2
      {
        OFFSET 11.9445 1.14441e-005 0
        CHANNELS 3 Zrotation Xrotation Yrotation
        JOINT Spine3
        {
          OFFSET 14.7254 4.19617e-005 0
          CHANNELS 3 Zrotation Xrotation Yrotation
          JOINT Spine4
          {
            OFFSET 10.9679 0 0
            CHANNELS 3 Zrotation Xrotation Yrotation
            JOINT RightShoulder
            {
              OFFSET 2.46616 -1.6653 3.69651
              CHANNELS 3 Zrotation Xrotation Yrotation
              JOINT RightArm
              {
                OFFSET 13.0012 0 0
                CHANNELS 3 Zrotation Xrotation Yrotation
                JOINT RightForeArm
                {
                  OFFSET 28.7848 1.52588e-005 0
                  CHANNELS 3 Zrotation Xrotation Yrotation
                  JOINT RightHand
                  {
                    OFFSET 26.5688 1.52588e-005 0
                    CHANNELS 3 Zrotation Xrotation Yrotation
                    End Site
                    {
                      OFFSET 0 0 0
                    }
                  }
                }
              }
            }
            JOINT LeftShoulder
            {
              OFFSET 2.38034 -1.29275 -3.75231
              CHANNELS 3 Zrotation Xrotation Yrotation
              JOINT LeftArm
              {
                OFFSET 16.3182 6.10352e-005 0
                CHANNELS 3 Zrotation Xrotation Yrotation
                JOINT LeftForeArm
                {
                  OFFSET 27.0901 0 0
                  CHANNELS 3 Zrotation Xrotation Yrotation
                  JOINT LeftHand
                  {
                    OFFSET 24.5451 1.52588e-005 0
                    CHANNELS 3 Zrotation Xrotation Yrotation
                    End Site
                    {
                      OFFSET 0 0 0
                    }
                  }
                }
              }
            }
            JOINT Neck
            {
              OFFSET 5.0226 -0.0266342 0
              CHANNELS 3 Zrotation Xrotation Yrotation
              JOINT Head
              {
                OFFSET 6.69363 2.86102e-005 0
                CHANNELS 3 Zrotation Xrotation Yrotation
                End Site
                {
                  OFFSET 0 0 0
                }
              }
            }
          }
        }
      }
    }
  }
}
MOTION
Frames:	10
Frame Time:	0.0333333
-8.74443 91.5814 43.5792 133.549 -77.0978 135.284 -175.814 -10.237 81.1732 -15.3825 11.6535 2.21184 73.9244 12.5185 6.02584 28.7808 4.35288e-006 2.50407e-006 179.642 22.9406 89.0887 -18.9996 -8.72511 -0.526575 62.9912 8.86417 5.2315 28.7808 1.53767e-005 2.16716e-005 -0.934847 7.63618 -90.575 11.5977 -2.07204 -0.790942 -0.0717516 -2.10486 -0.698976 -22.6149 -1.73853 -1.37562 -2.60227 -1.73856 -1.37565 81.5514 -56.1053 -111.43 12.1799 23.3659 19.3351 32.5422 30.6317 -57.3294 15.4699 5.40796 32.0178 -133.832 -62.7013 27.1595 -21.8014 -13.9035 -1.39849 57.0958 25.3791 -75.3774 -42.1937 -1.12031 -0.982578 -4.85459 20.9682 13.3385 -7.35117 18.5198 23.7061 
-8.39156 91.3793 45.1763 128.681 -75.496 130.188 -175.887 -11.3692 81.2755 -16.1363 13.2404 2.65057 74.8266 12.4288 5.89949 28.7808 4.35288e-006 2.50407e-006 179.855 24.8392 89.984 -18.7479 -9.30781 -0.553694 63.574 11.4826 6.66317 28.7808 1.53767e-005 2.16716e-005 -0.860648 7.67101 -90.6462 11.5293 -1.92387 -0.845094 -0.140407 -1.95922 -0.759264 -22.6817 -1.58099 -1.3864 -2.66911 -1.58102 -1.38643 81.4073 -55.9873 -111.669 12.3446 23.107 19.4647 28.0705 28.6645 -54.3137 16.4527 5.68869 31.713 -133.56 -62.8997 27.5789 -24.9337 -10.6273 -9.36747 34.981 25.5955 -58.1056 -19.278 -6.03887 32.1073 -5.00558 20.3581 13.9288 -6.63101 18.0798 21.8981 
-7.95245 91.099 47.0718 124.979 -73.6829 125.953 -175.828 -12.8187 81.3363 -16.9636 15.1437 2.96545 75.6976 12.4311 5.80876 28.7808 4.35288e-006 2.50407e-006 -179.978 27.0823 90.7184 -22.2681 -5.33914 -0.359759 61.7146 17.0171 10.2423 28.7808 1.53767e-005 2.16716e-005 -0.826243 7.70122 -90.5635 11.4702 -1.81643 -0.774169 -0.199681 -1.84873 -0.693467 -22.7404 -1.49993 -1.28439 -2.72778 -1.49993 -1.2844 81.0849 -56.1678 -112.06 12.2199 22.9197 19.417 24.8017 27.7219 -51.4379 16.5799 5.66636 31.3318 -132.215 -62.8786 29.0976 -19.3683 -16.0291 -5.6682 23.4535 23.1647 -46.5702 -9.33309 -0.499861 2.12786 -4.47843 20.0273 13.4814 -7.11318 17.6979 20.729 
-7.53661 91.1313 49.1237 120.691 -72.3998 121.221 -175.378 -13.2185 81.7009 -18.7997 18.1799 3.34591 74.1345 12.1532 5.81655 28.7808 4.35288e-006 2.50407e-006 -179.823 26.2757 91.2431 -20.4175 -7.72587 -0.475813 61.2787 15.5128 9.43576 28.7808 1.53767e-005 2.16716e-005 -0.782176 7.628 -90.3619 11.6112 -1.71931 -0.711428 -0.058783 -1.74927 -0.635104 -22.599 -1.42405 -1.19484 -2.58643 -1.42408 -1.19487 81.1623 -56.3976 -111.877 12.1367 22.7001 19.1105 22.7481 27.763 -48.8826 15.113 5.10672 30.8641 -129.623 -62.8667 32.0626 -18.8071 -16.4275 -14.2782 15.4648 17.7396 -39.4379 -4.81863 -0.959677 34.0949 -3.76669 19.9638 12.6616 -8.23833 17.4861 20.0972 
-6.98805 91.2432 51.3941 117.28 -70.8677 117.31 -174.73 -13.2454 82.2606 -21.7029 21.7772 3.97879 70.7942 9.80794 4.92683 28.7808 4.35288e-006 2.50407e-006 -179.608 24.0369 91.6594 -18.1654 -9.24876 -0.544129 59.9936 13.5127 8.46459 28.7808 1.53767e-005 2.16716e-005 -0.822477 7.55856 -90.0837 11.7446 -1.76484 -0.532107 0.0748019 -1.78634 -0.453954 -22.467 -1.52245 -1.03753 -2.45439 -1.52247 -1.03757 80.0142 -57.0818 -113.225 11.1745 22.7933 18.9663 22.9994 30.1761 -47.0393 12.9353 4.25836 29.86 -124.481 -62.6593 37.9496 -13.6761 -20.54 -5.31837 14.5976 14.0434 -43.552 -9.06733 -1.26664 15.5262 -2.56926 20.2593 10.7497 -10.1388 17.5197 20.6184 
-6.29199 91.0507 53.8329 113.092 -68.8878 112.985 -174.049 -14.8867 83.3518 -21.3839 22.5565 3.77455 71.8419 13.4113 6.61416 28.7808 4.35288e-006 2.50407e-006 -179.526 22.1668 92.0736 -17.67 -12.4745 -0.717434 59.5671 11.9698 7.5948 28.7808 1.53767e-005 2.16716e-005 -0.817999 7.40124 -90.1669 12.0611 -1.78428 -0.57381 0.391269 -1.80811 -0.494814 -22.1504 -1.5272 -1.08275 -2.13781 -1.52722 -1.08277 81.1392 -57.0672 -111.681 10.3144 22.8189 19.5359 24.5386 33.3266 -46.418 10.4491 3.29344 28.2148 -121.516 -62.6127 41.4483 -10.7467 -22.1469 -5.12854 13.8384 15.5746 -39.0778 -7.28712 -1.01559 17.1307 -3.02695 19.9117 11.283 -10.497 17.1625 19.7418 
-5.4663 90.8593 56.51 108.196 -66.4328 108.062 -172.979 -16.154 85.0382 -20.8749 26.6737 3.94631 71.2367 13.2166 6.60979 28.7808 4.35288e-006 2.50407e-006 -179.399 19.785 92.4432 -16.1973 -15.493 -0.875211 59.0826 9.63858 6.2561 28.7808 1.53767e-005 2.16716e-005 -0.886473 7.1991 -90.2013 12.4685 -1.90299 -0.460249 0.798943 -1.92132 -0.376018 -21.7447 -1.67673 -1.01103 -1.73208 -1.67675 -1.01106 81.5352 -57.4131 -111.019 9.63305 22.7114 20.1496 26.4032 37.0614 -46.0061 7.81713 2.29515 25.6428 -116.407 -61.6617 47.1708 -8.18865 -23.8334 -4.0102 9.75579 10.0945 -38.2016 -9.07024 -1.73097 23.1637 -2.02561 19.7091 9.89067 -11.7844 16.8181 19.6144 
-4.54676 90.6477 59.2115 102.735 -63.8178 102.689 -172.021 -16.5384 86.6047 -20.8947 31.2248 4.53343 70.1681 12.6826 6.47163 28.7808 4.35288e-006 2.50407e-006 -179.561 20.3085 92.4463 -17.0375 -22.7129 -1.28107 53.6762 9.14328 6.72185 28.7808 1.53767e-005 2.16716e-005 -0.949351 6.9384 -90.1959 12.9932 -1.99721 -0.348085 1.32375 -2.0122 -0.259825 -21.2215 -1.79962 -0.932198 -1.20882 -1.79963 -0.932229 81.9598 -57.9437 -110.268 9.25228 22.4163 20.5571 26.7129 39.9698 -44.5608 5.96978 1.56577 22.0139 -111.674 -61.1218 52.7992 -5.54022 -25.2971 -3.70342 5.44232 4.33285 -36.4707 -9.67762 -2.07306 25.5544 -0.234411 19.3969 7.94336 -13.4663 16.2128 20.5317 
-3.66009 90.7627 61.7934 97.318 -61.829 98.5846 -170.942 -15.9465 88.8369 -20.9389 35.6891 5.54908 68.043 11.0191 5.86558 28.7808 4.35288e-006 2.50407e-006 -179.212 19.0433 93.0619 -13.1036 -15.7528 -0.884422 51.4461 4.53068 3.73598 28.7808 1.53767e-005 2.16716e-005 -0.907281 6.62265 -90.4619 13.6267 -2.00027 -0.577221 1.95724 -2.02317 -0.488647 -20.5867 -1.73301 -1.15141 -0.574046 -1.73303 -1.15144 81.4215 -58.3865 -110.858 7.45218 22.6227 22.3525 27.1745 42.0499 -43.9126 6.61255 1.54817 19.4707 -107.741 -60.3829 57.4754 -5.96881 -22.633 -17.0669 0.470711 -13.6038 -9.66916 10.378 1.29015 7.52532 1.24858 19.459 7.22342 -14.9482 16.036 20.4008 
-2.70292 90.8668 64.4894 94.7197 -60.2171 97.6415 -169.625 -16.1849 91.5666 -21.1396 39.0447 6.64493 65.837 9.63195 5.34315 28.7808 4.35288e-006 2.50407e-006 -178.806 18.4627 94.4125 -13.1153 -13.854 -0.787269 51.8551 1.33786 1.42761 28.7808 1.53767e-005 2.16716e-005 -0.867626 6.44623 -90.7864 13.9824 -1.94467 -0.878987 2.31271 -1.98073 -0.792571 -20.2285 -1.58937 -1.42253 -0.215812 -1.58938 -1.42253 80.7669 -58.9473 -111.565 6.13868 22.5575 22.2306 25.1177 43.9043 -40.5872 5.87029 1.31254 18.165 -103.436 -59.5365 62.7243 -5.10896 -22.2722 -18.2993 1.91773 -17.2624 -3.19139 12.0352 0.373258 -0.687566 3.29776 19.6325 4.68655 -16.9958 15.8146 22.6989 
